<svg viewBox="0 0 320 220" xmlns="http://www.w3.org/2000/svg" font-family="-apple-system,Segoe UI,Roboto,Arial,sans-serif">
  <rect width="320" height="220" fill="#f5f7f8" rx="12" />
  <!-- semicircular canals -->
  <ellipse cx="115" cy="80" rx="42" ry="26" transform="rotate(-10 115 80)" fill="none" stroke="#0f6e6e" stroke-width="6" />
  <ellipse cx="115" cy="80" rx="42" ry="26" transform="rotate(55 115 80)" fill="none" stroke="#0f6e6e" stroke-width="6" opacity="0.75" />
  <ellipse cx="115" cy="80" rx="42" ry="26" transform="rotate(120 115 80)" fill="none" stroke="#0f6e6e" stroke-width="6" opacity="0.5" />

  <!-- cochlea spiral -->
  <path d="M195 140c0-16 13-28 29-28s26 11 26 24-10 21-21 21-17-7-17-16 6-13 13-13 11 4 11 9"
        fill="none" stroke="#0f6e6e" stroke-width="6" stroke-linecap="round" />

  <!-- nerve -->
  <path d="M150 105c10 12 18 20 30 25" fill="none" stroke="#0f6e6e" stroke-width="5" stroke-linecap="round" opacity="0.7" />

  <text x="40" y="140" font-size="13" fill="#1f2a2e" font-weight="600">Yarım Daire Kanalları</text>
  <text x="188" y="205" font-size="13" fill="#1f2a2e" font-weight="600">Koklea (Salyangoz)</text>
  <text x="105" y="165" font-size="11" fill="#1f2a2e" font-weight="600" opacity="0.7">Vestibülokoklear Sinir</text>
</svg>
