<svg viewBox="0 0 200 200" xmlns="http://www.w3.org/2000/svg">
  <circle cx="100" cy="100" r="96" fill="#e6f2f1" />
  <path d="M108 60c-24 0-43 19-43 45 0 19 10 28 10 41 0 9 7 14 15 14s14-6 14-14c0-8-8-10-8-21 0-12 9-16 17-23 9-9 15-19 15-30 0-7-9-12-20-12z"
        fill="none" stroke="#0f6e6e" stroke-width="7" stroke-linecap="round" stroke-linejoin="round" />
  <path d="M140 70c10 8 16 19 16 31" fill="none" stroke="#0f6e6e" stroke-width="6" stroke-linecap="round" opacity="0.55" />
  <path d="M152 58c15 12 23 28 23 46" fill="none" stroke="#0f6e6e" stroke-width="6" stroke-linecap="round" opacity="0.35" />
  <line x1="40" y1="45" x2="70" y2="75" stroke="#c62828" stroke-width="7" stroke-linecap="round" />
  <line x1="70" y1="45" x2="40" y2="75" stroke="#c62828" stroke-width="7" stroke-linecap="round" />
</svg>
