<svg viewBox="0 0 200 200" xmlns="http://www.w3.org/2000/svg">
  <circle cx="100" cy="100" r="96" fill="#e6f2f1" />
  <path d="M45 70c10-18 30-28 55-28s45 10 55 28c6 11 3 22-8 22-9 0-10-8-18-8-6 0-8 6-8 14 0 16-9 26-21 26s-21-10-21-26c0-8-2-14-8-14-8 0-9 8-18 8-11 0-14-11-8-22z"
        fill="none" stroke="#0f6e6e" stroke-width="7" stroke-linecap="round" stroke-linejoin="round" />
  <circle cx="80" cy="108" r="9" fill="#0f6e6e" opacity="0.65" />
  <circle cx="120" cy="108" r="9" fill="#0f6e6e" opacity="0.65" />
  <path d="M78 140c6 8 14 12 22 12s16-4 22-12" fill="none" stroke="#0f6e6e" stroke-width="6" stroke-linecap="round" />
</svg>
